<?xml version="1.0" encoding="UTF-8" standalone="no"?>
<!DOCTYPE svg PUBLIC "-//W3C//DTD SVG 1.1//EN" "http://www.w3.org/Graphics/SVG/1.1/DTD/svg11.dtd">
<svg width="100%" height="100%" viewBox="0 0 2000 2000" version="1.1" xmlns="http://www.w3.org/2000/svg" xmlns:xlink="http://www.w3.org/1999/xlink" xml:space="preserve" xmlns:serif="http://www.serif.com/" style="fill-rule:evenodd;clip-rule:evenodd;stroke-linejoin:round;stroke-miterlimit:2;">
    <g transform="matrix(1,0,0,1,-5000,-5500)">
        <g id="Thin-V2-Logo-Large-Transparent" serif:id="Thin V2 Logo Large Transparent" transform="matrix(1,0,0,1,5000,5500)">
            <rect x="0" y="0" width="2000" height="2000" style="fill:none;"/>
            <g transform="matrix(1.74503,0,0,1.74503,-745.028,-281.975)">
                <g transform="matrix(-2.77556e-17,-0.901828,0.455122,1.38778e-17,-417.145,1233.21)">
                    <rect x="214.111" y="2601.51" width="210.947" height="1024.52" style="fill:rgb(74,222,128);"/>
                </g>
                <g transform="matrix(0.859471,0,0,0.859471,140.529,-1902.35)">
                    <path d="M644.663,3671.07C631.77,3699.78 603.231,3718.25 571.763,3718.25C525.883,3718.25 466.082,3718.25 466.082,3718.25C447.189,3718.25 429.585,3708.67 419.321,3692.81C409.057,3676.95 407.533,3656.96 415.273,3639.73C519.608,3407.43 827.096,2722.8 949.191,2450.95C958.177,2430.95 978.068,2418.08 1000,2418.08C1021.93,2418.08 1041.82,2430.95 1050.81,2450.95C1172.9,2722.8 1480.39,3407.43 1584.73,3639.73C1592.47,3656.96 1590.94,3676.95 1580.68,3692.81C1570.41,3708.67 1552.81,3718.25 1533.92,3718.25L1428.24,3718.25C1396.77,3718.25 1368.23,3699.78 1355.34,3671.07C1283.08,3510.2 1050.81,2993.04 1050.81,2993.04C1041.82,2973.03 1021.93,2960.16 1000,2960.16C978.068,2960.16 958.177,2973.03 949.191,2993.04C949.191,2993.04 716.916,3510.2 644.663,3671.07Z" style="fill:url(#_Linear1);"/>
                </g>
            </g>
        </g>
    </g>
    <defs>
        <linearGradient id="_Linear1" x1="0" y1="0" x2="1" y2="0" gradientUnits="userSpaceOnUse" gradientTransform="matrix(241.228,1300.17,-1433.52,265.968,1000,2418.08)"><stop offset="0" style="stop-color:rgb(74,222,128);stop-opacity:1"/><stop offset="1" style="stop-color:rgb(34,197,94);stop-opacity:1"/></linearGradient>
    </defs>
</svg>
